<svg width="172" height="165" viewBox="0 0 172 165" fill="none" xmlns="http://www.w3.org/2000/svg">
<path d="M116.902 45.9018C125.393 52.8485 132.319 62.761 135.519 73.2939C135.768 74.0918 136.017 74.8898 136.274 75.7119C138.58 83.7447 140.144 93.5373 137.499 101.635C136.525 103.328 135.483 104.676 134.167 106.12C133.775 106.621 133.383 107.122 132.979 107.638C123.27 119.478 107.971 126.269 92.9447 128.227C76.1919 129.436 59.83 126.047 46.5084 115.368C44.8246 113.887 43.1977 112.366 41.5853 110.81C41.1393 110.401 40.6932 109.993 40.2337 109.572C36.1767 105.767 33.3461 102.365 33.0509 96.6574C33.0437 95.1221 33.0596 93.5866 33.0958 92.0517C33.108 91.2457 33.1202 90.4396 33.1327 89.6092C33.5843 72.9818 40.7649 58.4679 52.8914 47.0753C71.5409 30.3765 97.5751 30.7153 116.902 45.9018Z" fill="#FBA3CB"/>
<path d="M75.6875 136.685C82.3777 136.685 89.068 136.685 95.9609 136.685C96.3251 147.064 95.3553 155.506 87.8516 163.482C86.331 164.353 85.3565 164.41 84.0814 163.904C78.873 158.848 76.8853 153.858 75.6875 146.734C75.6875 143.418 75.6875 140.102 75.6875 136.685Z" fill="#EE3147"/>
<path d="M70.07 70.3627C73.019 72.1278 74.8688 73.9681 76.3633 77.062C77.1908 81.0135 76.5216 84.4979 74.5233 87.9874C72.6962 90.3858 70.3928 91.5401 67.5781 92.4702C62.9734 92.9344 60.3654 91.9984 56.7656 89.1205C53.7922 85.8876 53.8265 82.572 53.8777 78.3678C54.1309 75.6596 54.8542 74.3159 56.7656 72.3725C61.1534 69.1315 64.8543 68.9606 70.07 70.3627Z" fill="#111332"/>
<path d="M39.1953 118.597C41.2227 119.267 41.2227 119.267 42.73 120.782C44.8385 122.849 47.0352 124.302 49.5432 125.841C49.9792 126.113 50.4152 126.386 50.8644 126.666C51.928 127.33 52.9949 127.989 54.0625 128.646C53.4029 133.255 50.5907 135.889 46.951 138.648C41.6766 142.138 34.7652 144.507 28.2329 143.68C26.8813 142.34 27.2128 141.405 27.2128 141.405C27.4987 132.9 32.1774 125.092 38.3031 119.387C38.5975 119.127 38.892 118.866 39.1953 118.597Z" fill="#07B5E7"/>
<path d="M59.4687 97.1597C62.2555 97.3778 64.2375 98.1516 66.6489 99.4625C76.9171 104.642 91.9385 103.97 102.758 100.614C105.178 99.6709 107.26 98.4972 109.477 97.1597C111.462 96.9922 111.462 96.9922 112.855 97.1597C112.571 100.447 111.239 101.705 108.801 103.859C108.466 104.184 108.132 104.51 107.787 104.845C100.728 111.423 91.6523 113.034 82.316 112.819C73.9873 112.365 67.1058 107.857 61.0737 102.435C59.4687 100.509 59.4687 100.509 59.2153 98.5832C59.299 98.1135 59.3826 97.6437 59.4687 97.1597Z" fill="#440746"/>
<path d="M131.777 118.597C137.499 121.012 140.067 127.361 142.479 132.655C143.898 136.3 144.133 139.516 143.941 143.384C142.59 144.724 142.59 144.724 140.605 144.975C132.069 144.694 125.21 139.091 119.444 133.435C118.266 132.001 117.85 131.123 117.586 129.316C117.995 129.04 118.405 128.763 118.827 128.479C125.608 123.917 125.608 123.917 131.777 118.597Z" fill="#E42686"/>
<path d="M110.152 69.6929C113.613 70.9941 116.205 73.1104 117.842 76.4209C118.903 79.7353 118.65 82.7078 117.459 85.9385C115.368 89.0837 113.239 91.516 109.477 92.4702C105.504 92.9221 103.14 92.4488 99.8572 90.149C97.3183 87.9607 96.1749 85.9492 95.7075 82.6334C95.5332 78.6542 95.8794 76.1013 98.664 73.0425C102.451 69.7356 105.155 69.0628 110.152 69.6929Z" fill="#111331"/>
<path d="M86.5211 0C90.9823 2.31654 93.636 8.9016 95.2852 13.4194C95.961 16.0991 95.9609 16.0991 95.9609 26.1479C85.9256 25.8163 85.9256 25.8163 75.6875 25.478C75.6875 15.9434 77.5669 8.54096 83.7546 1.13311C85.1484 0.0209341 85.1484 0.0209323 86.5211 0Z" fill="#FA910D"/>
<path d="M145.969 76.3921C155.903 76.3921 162.531 77.8149 170.297 83.7612C171.648 85.771 171.648 85.771 171.535 87.1135C169.993 90.7798 165.272 92.7625 161.85 94.3962C156.738 96.4296 152.081 96.0521 146.645 95.8198C146.422 89.4087 146.199 82.9975 145.969 76.3921Z" fill="#F4691D"/>
<path d="M26.3555 77.062C26.2448 77.8012 26.1342 78.5405 26.0202 79.3021C25.5929 82.6909 25.6049 86.0453 25.6375 89.4556C25.6405 90.0705 25.6435 90.6853 25.6467 91.3188C25.6546 92.8192 25.6656 94.3195 25.6797 95.8198C16.1014 96.4981 9.38221 95.5568 1.76336 89.296C1.18144 88.7959 0.599544 88.2959 0 87.7808C0.505295 84.7286 2.06577 83.4866 4.41105 81.584C11.412 76.6721 18.1262 76.6541 26.3555 77.062Z" fill="#F46721"/>
<path d="M139.971 24.0544C140.873 24.0519 140.873 24.0518 141.793 24.0492C143.266 24.1382 143.266 24.1382 143.941 24.8081C144.581 32.5429 141.869 38.5363 137.25 44.6545C135.779 46.3045 134.226 47.6051 132.453 48.9253C131.993 48.4693 131.533 48.0134 131.059 47.5436C130.749 47.2379 130.439 46.9322 130.12 46.6172C129.402 45.9018 128.691 45.1791 127.987 44.4504C125.187 41.5857 122.218 39.173 118.938 36.8667C121.997 30.2992 128.131 27.6073 134.48 24.8081C136.493 24.1429 137.87 24.0484 139.971 24.0544Z" fill="#F7B40F"/>
<path d="M30.7058 23.9707C38.6596 24.1113 45.2315 28.2822 51.172 33.1874C52.1995 34.3773 52.4431 35.339 52.7109 36.8667C52.2292 37.2398 51.7475 37.6128 51.2512 37.9972C47.6275 40.8594 44.2535 44.6504 41.4388 48.3114C40.4013 48.9895 41.1366 49.3836 38.4335 49.3836C33.0087 44.4965 28.867 36.6552 27.707 29.4975C27.6545 27.9353 27.6464 26.3701 27.707 24.8081C28.3828 24.1382 28.3828 24.1382 30.7058 23.9707Z" fill="#F9B40F"/>
<path d="M58.1172 49.5952C60.5535 51.5904 62.0308 53.0263 62.3831 56.1688C62.1235 58.7938 61.2984 59.7867 59.4688 61.6538C57.3735 62.6924 55.6986 62.518 53.3867 62.3237C51.4018 61.2971 50.3347 60.5346 49.5564 58.4141C49.0229 55.6806 49.2119 54.5105 50.5569 51.9818C52.8978 49.2633 54.5633 49.2369 58.1172 49.5952Z" fill="#FDDFEB"/>
<path d="M93.9336 11.4097C97.1623 16.2108 95.9609 19.8027 95.9609 26.148C85.9256 25.8163 85.9256 25.8163 75.6875 25.478C75.6875 18.1089 75.6875 18.1089 76.3633 14.7593C76.5863 14.7593 76.8093 14.7593 77.0391 14.7593C77.0391 18.0754 77.0391 21.3915 77.0391 24.8081C82.8373 24.8081 88.6355 24.8081 94.6094 24.8081C94.2749 18.1759 94.2749 18.1759 93.9336 11.4097Z" fill="#D38328"/>
<path d="M106.773 72.582C108.125 73.0425 108.125 73.0425 109.477 74.3824C109.223 76.1409 109.223 76.1409 108.801 77.732C107.238 78.1926 107.238 78.1926 105.422 78.4019C104.155 77.6483 104.155 77.6482 103.395 76.3921C103.521 74.6336 103.521 74.6336 104.07 73.0425C105.422 72.3726 105.422 72.3726 106.773 72.582Z" fill="#E7E7ED"/>
<path d="M64.875 72.9587C66.9024 73.0425 66.9023 73.0425 67.5781 73.7124C67.7048 75.3453 67.7048 75.3453 67.5781 77.062C66.2266 78.4019 66.2266 78.4019 64.4526 78.4856C63.923 78.458 63.3933 78.4303 62.8476 78.4019C62.5904 76.8436 62.366 75.2797 62.1719 73.7124C62.8477 73.0425 62.8477 73.0425 64.875 72.9587Z" fill="#F4F0F6"/>
<path d="M29.6314 24.0729C31.0173 24.0947 32.4031 24.1165 33.789 24.1383C33.789 24.3594 33.789 24.5805 33.789 24.8082C32.228 24.8082 30.6669 24.8082 29.0586 24.8082C29.3821 26.525 29.706 28.2416 30.03 29.9583C30.121 30.4414 30.2121 30.9246 30.3059 31.4224C30.4838 32.3647 30.6636 33.3067 30.8454 34.2483C31.0492 35.3318 31.2298 36.4196 31.4053 37.508C31.5817 38.1854 31.5817 38.1854 31.7617 38.8766C32.2077 39.0977 32.6537 39.3187 33.1132 39.5465C32.6672 39.9887 32.2212 40.4308 31.7617 40.8864C31.2087 39.618 30.6606 38.3475 30.1145 37.0762C29.8087 36.3689 29.5029 35.6617 29.1879 34.933C27.8586 31.4895 27.564 28.4947 27.707 24.8082C28.3828 24.1383 28.3828 24.1383 29.6314 24.0729Z" fill="#D5A52C"/>
<path d="M39.1953 118.597C39.8643 118.818 40.5334 119.039 41.2227 119.267C41.2227 119.709 41.2227 120.151 41.2227 120.607C40.1071 121.294 38.9793 121.962 37.8438 122.617C37.4674 122.99 37.0911 123.363 36.7034 123.747C36.2643 124.182 36.2643 124.182 35.8164 124.626C35.3704 124.626 34.9244 124.626 34.4648 124.626C34.1931 125.393 34.1931 125.393 33.9158 126.176C33.151 127.892 32.4968 128.778 31.0859 129.986C31.9627 126.742 33.2021 124.839 35.5208 122.407C36.0652 121.83 36.6097 121.252 37.1706 120.657C38.5195 119.267 38.5195 119.267 39.1953 118.597Z" fill="#20A9DA"/>
<path d="M127.047 28.1577C127.493 28.3788 127.939 28.5999 128.398 28.8276C127.837 29.2888 127.837 29.2888 127.263 29.7593C126.774 30.1703 126.284 30.5814 125.78 31.0049C125.294 31.409 124.808 31.8132 124.307 32.2296C122.444 34.054 121.785 35.7679 120.965 38.2065C120.296 37.7644 119.627 37.3223 118.938 36.8667C119.873 34.7715 120.962 33.356 122.612 31.7586C123.015 31.363 123.419 30.9675 123.834 30.56C125.02 29.4976 125.02 29.4976 127.047 28.1577Z" fill="#DEAE32"/>
<path d="M43.9258 122.617C49.0424 125.392 49.0424 125.392 50.6836 127.306C47.7205 126.97 46.0882 125.978 43.9258 123.957C43.9258 123.514 43.9258 123.072 43.9258 122.617Z" fill="#219ECB"/>
</svg>
